<svg id="Capa_1" enable-background="new 0 0 512 512" height="512" viewBox="0 0 512 512" width="512" xmlns="http://www.w3.org/2000/svg"><g><path d="m397.613 392.417c-4.166 0-7.543 3.377-7.543 7.543s3.377 7.543 7.543 7.543 7.543-3.377 7.543-7.543-3.377-7.543-7.543-7.543z"/><path d="m219.467 392.417c-4.166 0-7.543 3.377-7.543 7.543s3.377 7.543 7.543 7.543 7.543-3.377 7.543-7.543-3.377-7.543-7.543-7.543z"/><path d="m434.246 362.365c-2.615-1.021-10.812-1.454-15.368-1.275h-13.765v-22.808h26.088c16.497 0 29.918-13.421 29.918-29.918v-.128c0-8.918-3.927-16.932-10.137-22.418 6.21-5.486 10.137-13.5 10.137-22.419 0-16.497-13.421-29.918-29.918-29.918h-26.088v-19.702c0-4.143-3.357-7.5-7.5-7.5s-7.5 3.357-7.5 7.5v19.702h-163.146v-19.702c0-4.143-3.357-7.5-7.5-7.5s-7.5 3.357-7.5 7.5v19.702h-26.088c-16.497 0-29.918 13.422-29.918 29.919 0 7.905 3.087 15.098 8.111 20.452-11.017 14.391-27.903 22.817-46.312 22.817h-14.133v-95.841l36.06-37.018c2.891-2.967 2.828-7.716-.139-10.605-2.967-2.892-7.716-2.829-10.605.139l-25.315 25.988v-63.302c0-4.143-3.357-7.5-7.5-7.5s-7.5 3.357-7.5 7.5v110.61l-27.373-28.094c-2.892-2.965-7.639-3.025-10.605-.138-2.967 2.891-3.029 7.64-.139 10.606l38.117 39.122v48.534h-14.128c-32.196 0-58.39-26.193-58.39-58.39v-61.92c0-6.904 1.089-13.722 3.235-20.262 2.148-6.545 5.309-12.687 9.389-18.247 10.163-13.83 15.535-30.218 15.535-47.392v-18.109c0-13.848 5.396-26.869 15.194-36.667 9.797-9.798 22.818-15.193 36.666-15.193 28.591 0 51.851 23.265 51.851 51.86v18.109c0 8.463 1.339 16.852 3.983 24.939 2.642 8.049 6.527 15.601 11.553 22.452 8.265 11.246 12.634 24.562 12.634 38.509v19.287c0 4.143 3.357 7.5 7.5 7.5s7.5-3.357 7.5-7.5v-19.287c0-17.165-5.376-33.553-15.543-47.386-4.084-5.568-7.244-11.71-9.389-18.244-2.148-6.573-3.238-13.393-3.238-20.271v-18.108c0-36.867-29.989-66.86-66.851-66.86-17.854 0-34.643 6.956-47.273 19.586-12.63 12.631-19.586 29.419-19.586 47.274v18.109c0 13.956-4.365 27.271-12.626 38.514-5.021 6.844-8.907 14.396-11.55 22.447-2.644 8.052-3.983 16.443-3.983 24.939v61.92c0 40.467 32.923 73.39 73.39 73.39h14.127v39.531c-49.269 2.354-88.628 43.171-88.628 93.012v34.797c0 4.143 3.357 7.5 7.5 7.5s7.5-3.357 7.5-7.5v-34.797c0-41.567 32.635-75.645 73.627-77.984v55.103c0 4.143 3.357 7.5 7.5 7.5s7.5-3.357 7.5-7.5v-109.662h14.133c13.851 0 27.014-3.795 38.32-10.717 1.317 15.289 14.174 27.33 29.799 27.33h26.088v22.808h-80.482c-4.143 0-7.5 3.357-7.5 7.5s3.357 7.5 7.5 7.5h32.379c-2.692 4.009-4.571 8.649-5.378 13.716l-4.784 30.016c-.758 4.755.6 9.583 3.725 13.246s7.68 5.764 12.495 5.764h33.595c-3.672 4.087-6.628 8.873-8.616 14.194l-12.458 33.359c-1.449 3.881.522 8.201 4.402 9.65 3.88 1.445 8.2-.521 9.65-4.402l12.458-33.359c4.343-11.629 15.602-19.442 28.015-19.442h143.145c12.413 0 23.671 7.813 28.014 19.442l12.458 33.359c1.127 3.016 3.987 4.878 7.027 4.878.872 0 1.759-.153 2.623-.476 3.88-1.449 5.852-5.77 4.402-9.65l-12.458-33.359c-1.987-5.322-4.943-10.107-8.615-14.194h33.595c4.815 0 9.37-2.101 12.495-5.764s4.482-8.491 3.725-13.246l-4.784-30.016c-.174-1.092-.401-2.164-.671-3.215 23.335 13.527 39.076 38.763 39.076 67.621v34.797c0 4.143 3.357 7.5 7.5 7.5s7.5-3.357 7.5-7.5v-34.797c0-46.113-33.694-84.499-77.754-91.847zm-263.285-54.001v-.128c0-8.226 6.692-14.918 14.918-14.918h196.58c4.143 0 7.5-3.357 7.5-7.5s-3.357-7.5-7.5-7.5h-196.58c-8.226 0-14.918-6.692-14.918-14.919 0-8.226 6.692-14.918 14.918-14.918h245.322c8.226 0 14.918 6.692 14.918 14.919 0 8.226-6.692 14.918-14.918 14.918h-13.483c-4.143 0-7.5 3.357-7.5 7.5s3.357 7.5 7.5 7.5h13.483c8.226 0 14.918 6.692 14.918 14.918v.128c0 8.226-6.692 14.918-14.918 14.918h-245.322c-8.226 0-14.918-6.692-14.918-14.918zm56.006 29.918h163.146v22.808h-163.146zm216.815 53.885 4.784 30.016c-.218.351.578.906-1.407 1.648h-277.238c-.312-.27-.985.429-1.407-1.648l4.784-30.017c1.484-9.315 9.408-16.076 18.842-16.076 0 0 234.706.306 238.563.895 6.744 2.115 11.91 7.849 13.079 15.182z"/><path d="m397.613 153.409c29.519 0 53.533-24.015 53.533-53.533s-24.015-53.533-53.533-53.533-53.533 24.014-53.533 53.533 24.015 53.533 53.533 53.533zm0-92.066c21.247 0 38.533 17.286 38.533 38.533s-17.286 38.533-38.533 38.533-38.533-17.286-38.533-38.533 17.286-38.533 38.533-38.533z"/></g></svg>