<svg id="Layer_1" enable-background="new 0 0 512.1 512.1" height="512" viewBox="0 0 512.1 512.1" width="512" xmlns="http://www.w3.org/2000/svg"><g><path d="m504.6 319.562h-304.408l-15.618-94.993c11.989 1.127 22.212 10.201 24.255 22.625 1.68 10.21 16.286 6.473 14.8-2.441-5.991-36.414 47.984-42.843 53.58-8.801 1.472 8.947 16.481 7.814 14.802-2.434-5.503-33.463 45.309-43.512 53.174-10.787.607 12.049 17.369 8.895 14.744-2.844-8.321-46.791-34.101-87.73-72.79-115.493-39.051-28.023-86.615-39.276-134.046-31.763-.044.006-.087.013-.113.017l-.237.036c-.007.001-.015.003-.022.004-.169.027-.338.049-.507.077-.009.001-.018.002-.026.004-.05.007-.107.016-.153.023-.001 0-.003 0-.004.001-.004.001-.007.001-.011.002-98.65 16.218-165.711 109.67-149.491 208.319 1.579 9.602 17.607 7.377 15.961-2.625-2.403-14.617 7.768-28.791 22.385-31.194 14.257-2.346 28.873 8.262 31.194 22.385 1.551 9.427 16.48 7.773 14.802-2.434-5.435-33.056 44.136-44.095 52.983-11.547 2.922 10.762 16.671 11.841 15.208-1.06-1.209-10.616 5.436-22.586 14.769-27.292l15.161 92.214h-177.391c-4.142 0-7.5 3.358-7.5 7.5s3.358 7.5 7.5 7.5h179.856l7.76 47.196c-15.059-10.401-30.836-19.835-48.146-25.715-24.984-8.487-53.423-8.542-80.076-.154-26.656 8.387-49.932 24.714-65.54 45.973-2.451 3.339-1.731 8.033 1.607 10.484 3.34 2.451 8.033 1.731 10.484-1.607 13.733-18.707 34.314-33.105 57.95-40.542 23.635-7.437 48.762-7.42 70.75.049 23.293 7.913 44.518 23.575 65.043 38.722 28.931 21.349 58.848 43.426 95.87 45.251 1.642.081 3.274.12 4.902.12 20.56 0 39.941-6.206 56.674-12.123 3.905-1.381 5.951-5.666 4.57-9.571-1.381-3.906-5.667-5.953-9.571-4.57-16.708 5.909-36.174 12.13-55.836 11.163-32.499-1.603-59.313-21.391-87.702-42.34-1.299-.959-2.602-1.92-3.907-2.88.014-.476-.014-.961-.094-1.449l-9.537-58.007h301.942c4.142 0 7.5-3.358 7.5-7.5s-3.358-7.499-7.5-7.499zm-301.907-104.677c-16.945-9.555-38.81-6.124-51.974 8.463-4.066-32.515-5.875-62.849-5.145-87.466 1.084-36.58 7.495-47.438 9.652-48.398.002 0 .003 0 .005-.001 2.429.238 11.978 8.509 24.71 42.812 8.6 23.172 16.619 52.604 23.187 84.828-.144-.082-.291-.157-.435-.238zm15.383-1.506c-6.986-34.552-15.614-66.015-24.911-90.536-5.561-14.665-11.145-26.262-16.614-34.516 17.174 3.836 34.436 15.136 50.176 33.163 18.336 21 32.946 49.153 42.289 81.042-7.825-3.868-16.855-5.179-25.436-3.768-10.381 1.708-19.247 7.103-25.504 14.615zm118.154-22.63c-17.794-8.115-39.485-2.56-51.225 13.235-14.223-52.484-41.391-94.224-73.145-115.869 23.71 4.394 46.361 13.99 66.534 28.466 26.409 18.952 46.261 44.598 57.836 74.168zm-290.927 41.182c-10.749 0-22.544 4.918-30.038 12.547 2.497-57.868 35.279-110.056 84.952-137.916-8.188 10.834-15.121 23.962-20.453 39.065-3.228 9.144 10.916 14.138 14.145 4.994 9.405-26.637 24.032-46.165 41.548-56.173-2.618 9.551-4.194 22.307-4.793 38.5-.974 26.308.937 59.05 5.42 94.211-17.017-10.726-39.583-7.805-53.279 6.976-.746-16.711.09-32.997 2.508-48.665 1.479-9.583-13.343-11.874-14.824-2.289-2.755 17.844-3.573 36.414-2.467 55.45-6.643-4.264-14.484-6.7-22.719-6.7z"/><path d="m428.978 124.707c22.902 0 41.535-18.632 41.535-41.535s-18.632-41.535-41.535-41.535-41.535 18.632-41.535 41.535 18.633 41.535 41.535 41.535zm0-68.069c14.631 0 26.535 11.903 26.535 26.535s-11.903 26.535-26.535 26.535-26.535-11.903-26.535-26.535 11.904-26.535 26.535-26.535z"/><path d="m428.978 32.808c4.142 0 7.5-3.358 7.5-7.5v-17.758c0-4.142-3.358-7.5-7.5-7.5s-7.5 3.358-7.5 7.5v17.758c0 4.142 3.358 7.5 7.5 7.5z"/><path d="m421.478 141.036v17.758c0 4.142 3.358 7.5 7.5 7.5s7.5-3.358 7.5-7.5v-17.758c0-4.142-3.358-7.5-7.5-7.5s-7.5 3.358-7.5 7.5z"/><path d="m469.894 49.756c1.919 0 3.839-.732 5.303-2.197l12.557-12.557c2.929-2.929 2.929-7.678 0-10.606-2.929-2.929-7.678-2.929-10.606 0l-12.557 12.557c-2.929 2.929-2.929 7.678 0 10.606 1.464 1.465 3.384 2.197 5.303 2.197z"/><path d="m382.759 118.785-12.557 12.557c-2.929 2.929-2.929 7.678 0 10.606 1.464 1.464 3.384 2.197 5.303 2.197s3.839-.732 5.303-2.197l12.557-12.557c2.929-2.929 2.929-7.678 0-10.606-2.928-2.929-7.677-2.929-10.606 0z"/><path d="m479.342 83.172c0 4.142 3.358 7.5 7.5 7.5h17.758c4.142 0 7.5-3.358 7.5-7.5s-3.358-7.5-7.5-7.5h-17.758c-4.142 0-7.5 3.358-7.5 7.5z"/><path d="m353.356 90.672h17.758c4.142 0 7.5-3.358 7.5-7.5s-3.358-7.5-7.5-7.5h-17.758c-4.142 0-7.5 3.358-7.5 7.5s3.358 7.5 7.5 7.5z"/><path d="m464.591 118.785c-2.929 2.929-2.929 7.677 0 10.606l12.557 12.557c1.464 1.465 3.384 2.197 5.303 2.197s3.839-.732 5.303-2.197c2.929-2.929 2.929-7.677 0-10.606l-12.557-12.557c-2.928-2.929-7.677-2.929-10.606 0z"/><path d="m382.759 47.559c1.464 1.465 3.384 2.197 5.303 2.197s3.839-.732 5.303-2.197c2.929-2.929 2.929-7.678 0-10.606l-12.557-12.557c-2.929-2.93-7.678-2.929-10.606 0-2.929 2.929-2.929 7.678 0 10.606z"/><path d="m34.36 425.693c-9.652 0-9.668 15 0 15 9.652 0 9.668-15 0-15z"/><path d="m137.917 467.558c-9.652 0-9.668 15 0 15 9.652 0 9.668-15 0-15z"/><path d="m164.009 410.825c-9.652 0-9.668 15 0 15 9.652 0 9.668-15 0-15z"/><path d="m362.776 497.05c-9.652 0-9.668 15 0 15 9.652 0 9.668-15 0-15z"/><path d="m451.722 455.342c-9.652 0-9.668 15 0 15 9.652 0 9.668-15 0-15z"/><path d="m290.932 386.285c-4.142 0-7.5 3.358-7.5 7.5s3.358 7.5 7.5 7.5h57.717c4.142 0 7.5-3.358 7.5-7.5s-3.358-7.5-7.5-7.5z"/><path d="m470.513 363.117c0-4.142-3.358-7.5-7.5-7.5h-128.997c-4.142 0-7.5 3.358-7.5 7.5s3.358 7.5 7.5 7.5h128.997c4.142 0 7.5-3.357 7.5-7.5z"/><path d="m509.264 433.478c-28.609-24.01-62.172-30.871-102.61-20.975-4.023.985-6.487 5.044-5.502 9.068s5.046 6.488 9.068 5.502c35.468-8.681 64.711-2.826 89.402 17.895 1.405 1.179 3.116 1.755 4.817 1.755 2.14 0 4.266-.911 5.749-2.679 2.662-3.172 2.249-7.903-.924-10.566z"/></g></svg>