<svg id="Layer_1" enable-background="new 0 0 512 512" viewBox="0 0 512 512" xmlns="http://www.w3.org/2000/svg"><g><path d="m474.334 342.392c10.126-26.867 15.666-55.983 15.666-86.392 0-135.31-109.69-245-245-245s-245 109.69-245 245c0 29.509 5.217 57.8 14.779 84 .097.266 3.273.533 3.371.799.196.532.394 1.063.594 1.593z" fill="#00d1fc"/><path d="m364.162 340h-349.383c34.284 93.937 124.42 161 230.221 161 66.756 0 127.275-26.699 171.464-70 1.085-1.065-40.181-57.79-52.302-91z" fill="#ff4fb8"/><path d="m341 147.5c-4.142 0-7.5-3.357-7.5-7.5v-75c0-4.136-3.364-7.5-7.5-7.5h-162c-4.136 0-7.5 3.364-7.5 7.5v75c0 4.143-3.358 7.5-7.5 7.5s-7.5-3.357-7.5-7.5v-75c0-12.406 10.093-22.5 22.5-22.5h162c12.407 0 22.5 10.094 22.5 22.5v75c0 4.143-3.358 7.5-7.5 7.5z" fill="#d9e7ec"/><path d="m100 431h-40c-16.569 0-30-13.431-30-30v-211c0-16.569 13.431-30 30-30h40c16.569 0 30 13.431 30 30v211c0 16.569-13.431 30-30 30z" fill="#463b85"/><path d="m460 190c0-16.569-13.431-30-30-30h-330c-16.569 0-30 13.431-30 30v211c0 16.569 13.431 30 30 30h316.464c17.177-16.833 31.887-36.174 43.536-57.431z" fill="#54469d"/><path d="m65 220h-31c-8.284 0-15-6.716-15-15v-90c0-8.284 6.716-15 15-15h31c8.284 0 15 6.716 15 15v90c0 8.284-6.716 15-15 15z" fill="#6354b2"/><path d="m456 220h-391c-8.284 0-15-6.716-15-15v-90c0-8.284 6.716-15 15-15h391c8.284 0 15 6.716 15 15v90c0 8.284-6.716 15-15 15z" fill="#6e61b7"/><path d="m245 240h-41c-8.284 0-15-6.716-15-15v-10c0-8.284 6.716-15 15-15h41c8.284 0 15 6.716 15 15v10c0 8.284-6.716 15-15 15z" fill="#ffcd6b"/><path d="m286 240h-41c-8.284 0-15-6.716-15-15v-10c0-8.284 6.716-15 15-15h41c8.284 0 15 6.716 15 15v10c0 8.284-6.716 15-15 15z" fill="#ffe1a8"/><path d="m247.411 70h-52.411c-8.284 0-15-6.716-15-15v-10c0-8.284 6.716-15 15-15h52.411c8.284 0 15 6.716 15 15v10c0 8.284-6.716 15-15 15z" fill="#54469d"/><path d="m295 70h-52.411c-8.284 0-15-6.716-15-15v-10c0-8.284 6.716-15 15-15h52.411c8.284 0 15 6.716 15 15v10c0 8.284-6.716 15-15 15z" fill="#6354b2"/><path d="m467.193 301.813-10.426 21.125c-.474.96-1.389 1.625-2.449 1.779l-23.313 3.388c-2.667.388-3.732 3.665-1.802 5.547l16.869 16.443c.766.747 1.116 1.823.935 2.878l-3.982 23.218c-.456 2.657 2.333 4.682 4.718 3.428l20.851-10.962c.947-.498 2.079-.498 3.027 0l20.851 10.962c1.534.807 3.235.257 4.132-.945.105-.141-1.449-2.94-1.368-3.098.304-.589.433-1.287.305-2.034l-4.933-21.64c-.181-1.055.169-2.131.935-2.878l16.957-15.168c1.93-1.881.865-5.159-1.802-5.547l-21.674-1.843c-1.059-.154-1.975-.819-2.449-1.779l-10.321-21.168c-.596-1.209-.987-3.519-2.147-3.519s-2.318.604-2.914 1.813z" fill="#fa0"/><path d="m509.212 328.104-23.313-3.388c-1.059-.154-1.975-.819-2.448-1.779l-10.426-21.125c-.596-1.208-1.756-1.813-2.916-1.813v41.254c0 4.798 1.754 9.43 4.931 13.024l21.566 24.396c.498-.667.749-1.535.586-2.483l-3.982-23.218c-.181-1.055.169-2.131.935-2.878l16.869-16.443c1.93-1.881.865-5.159-1.802-5.547z" fill="#ffc143"/><path d="m368.975 301.813-10.426 21.125c-.474.96-1.389 1.625-2.449 1.779l-23.313 3.388c-2.667.388-3.732 3.665-1.802 5.547l16.869 16.443c.766.747 1.116 1.823.935 2.878l-3.982 23.218c-.456 2.657 2.333 4.682 4.718 3.428l20.851-10.962c.947-.498 2.079-.498 3.027 0l20.851 10.962c1.534.807 3.235.257 4.132-.945.105-.141-1.449-2.94-1.368-3.098.304-.589.433-1.287.305-2.034l-4.933-21.64c-.181-1.055.169-2.131.935-2.878l16.957-15.168c1.93-1.881.865-5.159-1.802-5.547l-21.674-1.843c-1.059-.154-1.975-.819-2.449-1.779l-10.321-21.168c-.596-1.209-.987-3.519-2.147-3.519-1.158 0-2.318.604-2.914 1.813z" fill="#fa0"/><path d="m410.994 328.104-23.313-3.388c-1.059-.154-1.975-.819-2.448-1.779l-10.426-21.125c-.596-1.208-1.756-1.813-2.916-1.813v41.254c0 4.798 1.754 9.43 4.931 13.024l21.566 24.396c.498-.667.749-1.535.586-2.483l-3.982-23.218c-.181-1.055.169-2.131.935-2.878l16.869-16.443c1.93-1.881.865-5.159-1.802-5.547z" fill="#ffc143"/><path d="m275.193 301.813-10.426 21.125c-.474.96-1.389 1.625-2.449 1.779l-23.313 3.388c-2.667.388-3.732 3.665-1.802 5.547l16.869 16.443c.766.747 1.116 1.823.935 2.878l-3.982 23.218c-.456 2.657 2.333 4.682 4.718 3.428l20.851-10.962c.947-.498 2.079-.498 3.027 0l20.851 10.962c1.534.807 3.235.257 4.132-.945.105-.141-1.449-2.94-1.368-3.098.304-.589.433-1.287.305-2.034l-4.933-21.64c-.181-1.055.169-2.131.935-2.878l16.957-15.168c1.93-1.881.865-5.159-1.802-5.547l-21.674-1.843c-1.059-.154-1.975-.819-2.449-1.779l-10.321-21.168c-.596-1.209-.987-3.519-2.147-3.519s-2.318.604-2.914 1.813z" fill="#fa0"/><path d="m317.212 328.104-23.313-3.388c-1.059-.154-1.975-.819-2.448-1.779l-10.426-21.125c-.596-1.208-1.756-1.813-2.916-1.813v41.254c0 4.798 1.754 9.43 4.931 13.024l21.566 24.396c.498-.667.749-1.535.586-2.483l-3.982-23.218c-.181-1.055.169-2.131.935-2.878l16.869-16.443c1.93-1.881.865-5.159-1.802-5.547z" fill="#ffc143"/><path d="m178.975 301.813-10.426 21.125c-.474.96-1.389 1.625-2.449 1.779l-23.313 3.388c-2.667.388-3.732 3.665-1.802 5.547l16.869 16.443c.766.747 1.116 1.823.935 2.878l-3.982 23.218c-.456 2.657 2.333 4.682 4.718 3.428l20.851-10.962c.947-.498 2.079-.498 3.027 0l20.851 10.962c1.534.807 3.235.257 4.132-.945.105-.141-1.449-2.94-1.368-3.098.304-.589.433-1.287.305-2.034l-4.933-21.64c-.181-1.055.169-2.131.935-2.878l16.957-15.168c1.93-1.881.865-5.159-1.802-5.547l-21.674-1.843c-1.059-.154-1.975-.819-2.449-1.779l-10.321-21.168c-.596-1.209-.987-3.519-2.147-3.519s-2.318.604-2.914 1.813z" fill="#fa0"/><path d="m220.994 328.104-23.313-3.388c-1.059-.154-1.975-.819-2.448-1.779l-10.426-21.125c-.596-1.208-1.756-1.813-2.916-1.813v41.254c0 4.798 1.754 9.43 4.931 13.024l21.566 24.396c.498-.667.749-1.535.586-2.483l-3.982-23.218c-.181-1.055.169-2.131.935-2.878l16.869-16.443c1.93-1.881.865-5.159-1.802-5.547z" fill="#ffc143"/><path d="m76.464 298.536 7.929-7.929c1.953-1.953 1.953-5.118 0-7.071l-7.929-7.929c-1.953-1.953-5.118-1.953-7.071 0l-7.929 7.929c-1.953 1.953-1.953 5.118 0 7.071l7.929 7.929c1.953 1.952 5.119 1.952 7.071 0z" fill="#fff"/><path d="m104.393 356.82 14.142-14.142c1.953-1.953 1.953-5.118 0-7.071l-14.142-14.142c-1.953-1.953-5.118-1.953-7.071 0l-14.142 14.142c-1.953 1.953-1.953 5.118 0 7.071l14.142 14.142c1.953 1.952 5.119 1.952 7.071 0z" fill="#ffc143"/></g><g/><g/><g/><g/><g/><g/><g/><g/><g/><g/><g/><g/><g/><g/><g/></svg>