<svg id="Layer_1" enable-background="new 0 0 512 512" viewBox="0 0 512 512" xmlns="http://www.w3.org/2000/svg"><g><path d="m250.501 386.833 178.826 47.615c41.037-43.807 66.176-102.689 66.176-167.451 0-135.311-109.691-245.002-245.002-245.002s-245.002 109.692-245.002 245.003c0 64.762 25.139 123.644 66.176 167.451z" fill="#fef156"/><path d="m192.09 0c-24.878 0-43.272 0-45.895 0-40.986 0-74.52 33.534-74.52 74.52v359.929c11.036 11.78 23.225 22.465 36.382 31.886l109.969-407.653z" fill="#4a3279"/><path d="m321.356 0c-35.102 0-90.184 0-129.266 0-4.603 7.748-9.959 22.487 3.936 36.382l145.448 22.3z" fill="#5b4982"/><path d="m392.944 466.335c13.157-9.42 25.346-20.105 36.382-31.886 0-37.639 0-76.947 0-115.183l-75.095-46.531z" fill="#5b4982"/><path d="m354.807 0c-2.482 0-15.296 0-33.451 0-4.311 4.914-16.183 21.093-1.403 36.382l72.992 282.018c5.974 6.381 20.396 17.727 36.382.866 0-86.239 0-239.429 0-244.746 0-40.986-33.534-74.52-74.52-74.52z" fill="#6c618c"/><path d="m196.026 36.382c-22.939 0-41.55 0-49.831 0-20.976 0-38.138 17.162-38.138 38.138v391.83c32.125 22.996 68.087 37.056 104.71 42.737l77.422-140.587z" fill="#bbf0f9"/><path d="m354.806 36.382c-20.298 0-102.562 0-158.78 0 0 0-19.335 26.118 0 54.618v29.5 258s-10.376 33.666 16.854 50.458l4.233 47.377s-12.778 17.443-4.347 32.752c12.544 1.945 25.164 2.913 37.735 2.913 53.129 0 102.303-16.917 142.443-45.65 0-155.062 0-378.367 0-391.83 0-20.976-17.162-38.138-38.138-38.138z" fill="#e8f8fc"/><path d="m274.38 476.335h-57.266c-13.188 0-23.879-10.691-23.879-23.879 0-13.188 10.691-23.879 23.879-23.879h57.266l14.396 23.879z" fill="#3ecd8d"/><path d="m307.767 452.456c0-13.188-10.691-23.879-23.879-23.879h-9.508c-13.188 0-23.879 10.691-23.879 23.879 0 13.188 10.691 23.879 23.879 23.879h9.508c13.188 0 23.879-10.692 23.879-23.879z" fill="#95db76"/><path d="m174.03 79.618c-26.637 0-43.439 28.657-30.431 51.902l14.327 25.601c7.046 12.59 25.163 12.59 32.209 0l14.327-25.601c13.007-23.245-3.795-51.902-30.432-51.902z" fill="#02c0fc"/><circle cx="174.03" cy="113.833" fill="#1d8df2" r="14"/><path d="m174.03 199.497c-26.637 0-43.439 28.657-30.431 51.902l14.326 25.601c7.046 12.59 25.163 12.59 32.209 0l14.327-25.601c13.008-23.245-3.794-51.902-30.431-51.902z" fill="#ff6eae"/><circle cx="174.03" cy="233.712" fill="#e2338f" r="14"/><path d="m186.028 335.514h-26.6c-6.844 0-12.443 5.599-12.443 12.443v26.6c0 6.844 5.599 12.443 12.443 12.443h26.6c6.844 0 12.443-5.599 12.443-12.443v-26.6c0-6.844-5.599-12.443-12.443-12.443z" fill="#6ad9fb"/><path d="m265.046 335.514h-26.6c-6.844 0-12.443 5.599-12.443 12.443v26.6c0 6.844 5.599 12.443 12.443 12.443h26.6c6.844 0 12.443-5.599 12.443-12.443v-26.6c0-6.844-5.599-12.443-12.443-12.443z" fill="#6ad9fb"/><path d="m344.064 335.514h-26.6c-6.843 0-12.443 5.599-12.443 12.443v26.6c0 6.844 5.599 12.443 12.443 12.443h26.6c6.844 0 12.443-5.599 12.443-12.443v-26.6c0-6.844-5.599-12.443-12.443-12.443z" fill="#bbf0f9"/><path d="m358.8 341.557c-4.33-4.33-11.416-4.331-15.747 0l-14.457 14.457-8.183-8.182c-4.33-4.33-11.417-4.33-15.747 0s-4.331 11.417 0 15.747l16.056 16.056c4.203 4.203 11.312 4.435 15.747 0l22.33-22.33c4.331-4.332 4.331-11.418.001-15.748z" fill="#3ecd8d"/><path d="m429.327 94.121h-160.58c-19.921 0-36.221 16.299-36.221 36.221 0 19.921 16.299 36.221 36.221 36.221h160.579l22.765-38.841z" fill="#6ad9fb"/><path d="m429.327 214h-160.58c-19.921 0-36.221 16.299-36.221 36.221 0 19.922 16.299 36.221 36.221 36.221h160.579l22.784-41.192z" fill="#6ad9fb"/><path d="m406.799 131.35c0-5.066-4.145-9.211-9.211-9.211h-117.496c-5.066 0-9.21 4.145-9.21 9.211s4.145 9.21 9.21 9.21h117.496c5.066.001 9.211-4.144 9.211-9.21z" fill="#bbf0f9"/><path d="m406.799 250.221c0-5.066-4.145-9.211-9.211-9.211h-117.496c-5.066 0-9.21 4.145-9.21 9.211 0 5.065 4.145 9.21 9.21 9.21h117.496c5.066.001 9.211-4.144 9.211-9.21z" fill="#bbf0f9"/><path d="m470.28 214h-40.953v72.442h40.953c19.922 0 36.221-16.299 36.221-36.221 0-19.922-16.299-36.221-36.221-36.221z" fill="#ff6eae"/><path d="m470.28 94.121h-40.953v72.442h40.953c19.922 0 36.221-16.3 36.221-36.221 0-19.921-16.299-36.221-36.221-36.221z" fill="#02c0fc"/><path d="m448.42 128.475 11.158 15.853c2.112 3.001 6.56 3.001 8.672 0l11.158-15.853c2.473-3.513-.04-8.354-4.336-8.354h-22.316c-4.296 0-6.809 4.842-4.336 8.354z" fill="#6ad9fb"/><path d="m448.42 248.354 11.158 15.853c2.112 3.001 6.56 3.001 8.672 0l11.158-15.853c2.473-3.513-.04-8.354-4.336-8.354h-22.316c-4.296 0-6.809 4.841-4.336 8.354z" fill="#ffa7ca"/></g><g/><g/><g/><g/><g/><g/><g/><g/><g/><g/><g/><g/><g/><g/><g/></svg>