<svg id="Capa_1" enable-background="new 0 0 512 512" height="512" viewBox="0 0 512 512" width="512" xmlns="http://www.w3.org/2000/svg"><g><path d="m256 22c-135.31 0-245 109.69-245 245 0 36.242 7.877 70.642 22 101.592h1v-60.076c0-17.103 13.914-31.018 31.017-31.018h71.966c17.103 0 31.017 13.915 31.017 31.018v39.866h49v-12.374c0-9.251 7.526-16.777 16.777-16.777h131.542l.293-.475c5.703-9.232 15.574-14.744 26.406-14.744h71.966c13.07 0 24.759 8.227 29.182 20.503l1.042-.055c4.429-18.431 6.792-37.668 6.792-57.46 0-135.31-109.69-245-245-245z" fill="#d8ecfe"/><g><g><path d="m136.983 277.498c17.103 0 31.017 13.915 31.017 31.018v39.866h49v-12.374c0-9.251 7.526-16.777 16.777-16.777h30.164v-101.116c0-10.201 4.513-19.363 11.641-25.612v-13.445c0-13.807-11.193-25-25-25h-114.33c-13.807 0-25 11.193-25 25v98.439h25.731z" fill="#8bc727"/><g fill="#596c76"><path d="m249 154c0-1.657-1.343-3-3-3h-18c-1.657 0-3 1.343-3 3v60h24z"/><path d="m225 321.738c2.557-1.579 5.557-2.506 8.777-2.506h15.223v-67.232h-24z"/></g><g fill="#465a61"><path d="m234.5 152.5c0-.549.158-1.057.416-1.5h-6.916c-1.657 0-3 1.343-3 3v60h9.5z"/><path d="m225 252v69.738c2.557-1.579 5.557-2.506 8.777-2.506h.723v-67.232z"/></g><path d="m249 253h-24c-2.761 0-5-2.239-5-5v-30c0-2.761 2.239-5 5-5h24c2.761 0 5 2.239 5 5v30c0 2.761-2.239 5-5 5z" fill="#8d9ca8"/><path d="m236 248v-30c0-2.761 2.239-5 5-5h-16c-2.761 0-5 2.239-5 5v30c0 2.761 2.239 5 5 5h16c-2.761 0-5-2.239-5-5z" fill="#7a8c98"/><path d="m210.484 148.779h-34.136c-.16 0-.318-.009-.478-.012v12.567c0 9.69 7.855 17.546 17.546 17.546s17.546-7.855 17.546-17.546v-12.567c-.159.003-.317.012-.478.012z" fill="#ffbd86"/><g><path d="m192 161.334v-12.555h-15.651c-.16 0-.318-.009-.478-.012v12.567c0 9.69 7.855 17.546 17.546 17.546 2.91 0 5.648-.72 8.064-1.974-5.629-2.922-9.481-8.792-9.481-15.572z" fill="#f6a96c"/></g><g><path d="m219.048 42.592v7.978c10.267 1.052 18.302 9.75 18.302 20.29v8.882h9.406c1.816 0 3.566.283 5.212.804v-40.999c0-13.333-10.808-24.141-24.141-24.141-5.691 0-10.918 1.974-15.045 5.268 3.967 6.369 6.266 13.878 6.266 21.918z" fill="#6d3326"/><path d="m140.077 79.741h9.406v-8.882c0-11.247 9.15-20.397 20.397-20.397h47.074c1.055 0 2.083.105 3.095.26v-8.131c-.001-23.522-19.07-42.591-42.592-42.591-23.523 0-42.592 19.069-42.592 42.592v37.953c1.646-.52 3.396-.804 5.212-.804z" fill="#883f2e"/><g><path d="m160 42.592c0-19.148 12.636-35.342 30.024-40.705-3.973-1.225-8.192-1.887-12.567-1.887-23.523 0-42.592 19.069-42.592 42.592v37.953c1.646-.52 3.396-.804 5.212-.804h9.406v-8.882c0-7.663 4.252-14.346 10.517-17.831z" fill="#6d3326"/></g></g><g><g><path d="m149.483 78.741h-9.406c-10.126 0-18.335 8.209-18.335 18.335v4.287c0 10.126 8.209 18.335 18.335 18.335h9.406z" fill="#f6a96c"/><path d="m246.756 78.741h-9.406v40.957h9.406c10.126 0 18.335-8.209 18.335-18.335v-4.287c0-10.126-8.208-18.335-18.335-18.335z" fill="#ffbd86"/></g><g><path d="m210.485 149.78h-34.136c-15.39 0-27.866-12.476-27.866-27.866v-51.055c0-11.817 9.58-21.397 21.397-21.397h47.074c11.817 0 21.397 9.58 21.397 21.397v51.054c0 15.39-12.476 27.867-27.866 27.867z" fill="#fed2a4"/></g><path d="m171 121.914v-51.055c0-11.817 9.58-21.397 21.397-21.397h-22.517c-11.817 0-21.397 9.58-21.397 21.397v51.054c0 15.39 12.476 27.866 27.866 27.866h22.517c-15.39.001-27.866-12.476-27.866-27.865z" fill="#ffbd86"/><g><g><path d="m193.417 140c-6.373 0-12.746-2.151-17.945-6.452-3.191-2.64-3.638-7.368-.998-10.56 2.64-3.19 7.367-3.639 10.56-.998 4.857 4.019 11.911 4.019 16.768 0 3.193-2.641 7.92-2.193 10.56.998 2.64 3.192 2.193 7.919-.998 10.56-5.201 4.301-11.574 6.452-17.947 6.452z" fill="#d88a55"/></g><g><path d="m193.409 114.473c-1.349 0-2.714-.364-3.945-1.127l-8.559-5.308c-1.904-1.181-3.181-3.152-3.48-5.372-.299-2.221.41-4.459 1.934-6.102l8.559-9.229c2.816-3.036 7.561-3.216 10.599-.399 3.037 2.816 3.216 7.562.399 10.599l-2.368 2.553.821.509c3.521 2.183 4.604 6.807 2.421 10.327-1.419 2.29-3.872 3.549-6.381 3.549z" fill="#d88a55"/></g></g></g><g><g><path d="m167.74 99.08c-4.142 0-7.5-3.358-7.5-7.5v-9.415c0-4.142 3.358-7.5 7.5-7.5s7.5 3.358 7.5 7.5v9.415c0 4.142-3.358 7.5-7.5 7.5z" fill="#d88a55"/></g><g><path d="m219.093 99.08c-4.142 0-7.5-3.358-7.5-7.5v-9.415c0-4.142 3.358-7.5 7.5-7.5s7.5 3.358 7.5 7.5v9.415c0 4.142-3.358 7.5-7.5 7.5z" fill="#d88a55"/></g></g></g><path d="m298.006 184.049h93.724c3.508-3.339 7.47-6.2 11.79-8.479v-80.521c0-32.262-26.154-58.416-58.416-58.416-32.262 0-58.416 26.154-58.416 58.416v90.94c3.545-1.251 7.352-1.94 11.318-1.94z" fill="#883f2e"/><path d="m312 95.05c0-27.915 19.585-51.241 45.76-57.025-4.077-.901-8.308-1.391-12.655-1.391-32.262 0-58.416 26.154-58.416 58.416v90.94c3.543-1.252 7.351-1.94 11.317-1.94h13.994z" fill="#6d3326"/><g fill="#fd3581"><path d="m262.94 351.824v.176h.193c-.064-.058-.127-.118-.193-.176z"/><path d="m365.318 319.231.293-.475c5.703-9.232 15.574-14.744 26.406-14.744h35.253v-85.897c0-19.366-15.7-35.066-35.066-35.066h-94.198c-19.366 0-35.066 15.7-35.066 35.066v101.116z"/></g><path d="m328.863 183.049h-30.857c-19.366 0-35.066 15.7-35.066 35.066v101.116h33.73v-101.116c0-18.398 14.172-33.476 32.193-34.939z" fill="#fe0364"/><path d="m345.105 177.77c-5.736 0-11.214-1.117-16.242-3.125v15.043c0 8.97 7.272 16.242 16.242 16.242 8.97 0 16.242-7.272 16.242-16.242v-15.043c-5.028 2.008-10.506 3.125-16.242 3.125z" fill="#ffbd86"/><g><path d="m343 189.688v-11.969c-4.972-.238-9.727-1.313-14.137-3.074v15.043c0 8.97 7.272 16.242 16.242 16.242 2.537 0 4.929-.598 7.068-1.636-5.424-2.63-9.173-8.173-9.173-14.606z" fill="#f6a96c"/></g><g><g><path d="m301.171 133.836v-19.656c0-2.339.61-4.536 1.672-6.449h-8.935c-11.31 0-20.478 9.169-20.478 20.479 0 11.31 9.169 20.479 20.478 20.479h9.852c-1.672-4.642-2.589-9.642-2.589-14.853z" fill="#f6a96c"/><path d="m396.301 107.732h-7.262v26.105c0 5.211-.917 10.21-2.59 14.852h9.852c11.31 0 20.478-9.169 20.478-20.479.001-11.31-9.168-20.478-20.478-20.478z" fill="#ffbd86"/></g><g><path d="m363.015 83.785c4.878-4.622 12.378-5.33 17.883-1.477 5.527 3.869 9.142 10.283 9.142 17.542v33.987c0 24.816-20.118 44.934-44.934 44.934-24.816 0-44.934-20.118-44.934-44.934v-19.655c0-7.915 6.416-14.331 14.331-14.331h25.847c3.667 0 7.195-1.406 9.857-3.928z" fill="#fed2a4"/></g><path d="m320.152 133.836v-19.656c0-7.915 6.416-14.331 14.331-14.331h-19.981c-7.915 0-14.331 6.416-14.331 14.331v19.656c0 24.816 20.118 44.934 44.934 44.934 3.437 0 6.781-.394 9.996-1.127-20.008-4.542-34.949-22.424-34.949-43.807z" fill="#ffbd86"/><g><g><path d="m345.105 165.878c-6.373 0-12.746-2.15-17.945-6.451-3.192-2.64-3.639-7.368-.999-10.559s7.368-3.639 10.559-.999c4.858 4.019 11.91 4.019 16.769 0 3.192-2.641 7.92-2.192 10.559.999 2.64 3.191 2.193 7.919-.999 10.559-5.198 4.301-11.571 6.451-17.944 6.451z" fill="#d88a55"/></g><g><path d="m345.098 143.463c-1.349 0-2.714-.364-3.945-1.127l-8.559-5.308c-1.904-1.181-3.181-3.151-3.48-5.372s.41-4.459 1.933-6.102l8.559-9.229c2.817-3.037 7.562-3.216 10.599-.4 3.038 2.817 3.216 7.562.4 10.599l-2.368 2.554.821.509c3.521 2.183 4.604 6.807 2.421 10.327-1.42 2.291-3.872 3.549-6.381 3.549z" fill="#d88a55"/></g></g></g><g><g><path d="m319.429 128.07c-4.142 0-7.5-3.358-7.5-7.5v-9.415c0-4.142 3.358-7.5 7.5-7.5s7.5 3.358 7.5 7.5v9.415c0 4.142-3.358 7.5-7.5 7.5z" fill="#d88a55"/></g><g><path d="m370.782 128.07c-4.142 0-7.5-3.358-7.5-7.5v-9.415c0-4.142 3.358-7.5 7.5-7.5s7.5 3.358 7.5 7.5v9.415c0 4.142-3.358 7.5-7.5 7.5z" fill="#d88a55"/></g></g></g><g><path d="m380.971 234.825h7.803c1.895-4.259 6.159-7.241 11.114-7.241h13.533c10.225 0 19.943-3.873 27.365-10.905l4.354-4.126c2.294-2.175 5.29-3.372 8.433-3.372 2.434 0 4.761.729 6.732 2.109 4.991 3.494 7.971 9.211 7.971 15.294v8.241h6.752c2.345 0 4.58.467 6.632 1.294v-13.944c0-29.636-24.025-53.661-53.661-53.661-29.636 0-53.661 24.025-53.661 53.661v13.944c2.053-.827 4.288-1.294 6.633-1.294z" fill="#883f2e"/><g><path d="m404.678 222.175c0-24.366 16.245-44.926 38.492-51.472-4.812-1.416-9.899-2.189-15.169-2.189-29.636 0-53.661 24.025-53.661 53.661v13.944c2.052-.827 4.287-1.294 6.632-1.294h7.803c1.895-4.259 6.159-7.241 11.114-7.241h4.79v-5.409z" fill="#6d3326"/></g><path d="m463.983 303.012h-71.966c-11.521 0-21.616 6.088-27.256 15.219h.467l.113 1.006c9.198.062 16.664 7.558 16.664 16.771l-.005 140.544h1.005c54.968-33.391 95.752-87.816 111.202-152.091-4.367-12.488-16.246-21.449-30.224-21.449z" fill="#60b7ff"/><path d="m413.08 303.012h-21.063c-11.521 0-21.616 6.088-27.256 15.219h.467c9.818 0 17.777 7.959 17.777 17.777v140.544c4.006-2.435 7.937-4.995 11.789-7.648v-133.874c0-12.768 7.475-23.787 18.286-28.928z" fill="#26a6fe"/><path d="m428 298.082c-5.27 0-10.302-1.028-14.92-2.877v13.906c0 8.24 6.68 14.92 14.92 14.92s14.92-6.68 14.92-14.92v-13.906c-4.618 1.849-9.65 2.877-14.92 2.877z" fill="#ffbd86"/><g><path d="m429 309.111v-11.054c-.333.008-.665.024-1 .024-5.27 0-10.302-1.028-14.92-2.877v13.906c0 8.24 6.68 14.92 14.92 14.92 2.93 0 5.655-.857 7.96-2.316-4.178-2.643-6.96-7.293-6.96-12.603z" fill="#f6a96c"/></g><g><g><path d="m387.724 257.805v-18.055c0-2.151.566-4.169 1.55-5.924h-8.302c-10.389 0-18.812 8.422-18.812 18.812 0 10.389 8.422 18.812 18.812 18.812h9.136c-1.541-4.265-2.384-8.858-2.384-13.645z" fill="#f6a96c"/><path d="m475.029 233.825h-6.753v23.979c0 4.787-.844 9.381-2.383 13.644h9.136c10.389 0 18.812-8.422 18.812-18.812 0-10.389-8.423-18.811-18.812-18.811z" fill="#ffbd86"/></g><g><path d="m444.452 211.827c4.481-4.246 11.37-4.896 16.427-1.356 5.077 3.554 8.398 9.446 8.398 16.114v31.22c0 22.796-18.48 41.276-41.276 41.276-22.796 0-41.276-18.48-41.276-41.276v-18.056c0-7.271 5.894-13.165 13.165-13.165h13.533c9.925 0 19.472-3.805 26.677-10.632z" fill="#fed2a4"/></g><g><path d="m403.447 256.814v-18.489c0-5.041 2.772-9.428 6.87-11.741h-10.429c-7.271 0-13.165 5.894-13.165 13.165v18.056c0 22.796 18.48 41.276 41.276 41.276 3.022 0 5.964-.333 8.801-.95-19.061-4.093-33.353-21.032-33.353-41.317z" fill="#ffbd86"/></g><g><g><path d="m428 290c-5.993 0-11.985-2.022-16.874-6.066-3.192-2.64-3.639-7.368-.999-10.559 2.639-3.191 7.368-3.639 10.559-.999 4.237 3.505 10.389 3.505 14.626 0 3.191-2.641 7.92-2.192 10.559.999 2.641 3.191 2.193 7.919-.999 10.559-4.887 4.044-10.879 6.066-16.872 6.066z" fill="#d88a55"/></g><g><path d="m427.993 267.259c-1.349 0-2.714-.364-3.945-1.127l-7.862-4.875c-1.904-1.181-3.181-3.151-3.48-5.372s.41-4.459 1.934-6.102l7.862-8.478c2.816-3.036 7.561-3.216 10.599-.399 3.037 2.816 3.216 7.562.399 10.599l-1.671 1.802.125.077c3.52 2.183 4.604 6.806 2.421 10.327-1.421 2.289-3.873 3.548-6.382 3.548z" fill="#d88a55"/></g></g></g><g><g><path d="m404.414 253.119c-4.142 0-7.5-3.358-7.5-7.5v-5.619c0-4.142 3.358-7.5 7.5-7.5s7.5 3.358 7.5 7.5v5.619c0 4.142-3.358 7.5-7.5 7.5z" fill="#d88a55"/></g><g><path d="m451.586 253.119c-4.142 0-7.5-3.358-7.5-7.5v-5.619c0-4.142 3.358-7.5 7.5-7.5s7.5 3.358 7.5 7.5v5.619c0 4.142-3.357 7.5-7.5 7.5z" fill="#d88a55"/></g></g></g><g><g><path d="m141.496 269.258h-80.992c-7.271 0-13.165-5.894-13.165-13.165v-60.432c0-29.636 24.025-53.661 53.661-53.661 29.636 0 53.661 24.025 53.661 53.661v60.432c0 7.271-5.894 13.165-13.165 13.165z" fill="#883f2e"/></g><path d="m72.678 256.093v-60.432c0-25.27 17.472-46.447 40.992-52.143-4.064-.984-8.304-1.518-12.67-1.518-29.636 0-53.661 24.025-53.661 53.661v60.432c0 7.271 5.894 13.165 13.165 13.165h25.339c-7.271 0-13.165-5.894-13.165-13.165z" fill="#6d3326"/><path d="m136.983 276.498h-71.966c-17.682 0-32.017 14.335-32.017 32.017v60.077c9.87 21.63 22.804 41.587 38.231 59.292h1v-62.725c0-9.251 7.526-16.777 16.777-16.777h79.992v-39.866c0-17.683-14.335-32.018-32.017-32.018z" fill="#60b7ff"/><path d="m86.08 276.498h-21.063c-17.682 0-32.017 14.335-32.017 32.017v60.077c6.662 14.601 14.723 28.427 24 41.319v-101.396c0-16.692 12.775-30.394 29.08-31.878z" fill="#26a6fe"/><path d="m101 271.567c-5.27 0-10.302-1.028-14.92-2.877v13.907c0 8.24 6.68 14.92 14.92 14.92s14.92-6.68 14.92-14.92v-13.907c-4.618 1.849-9.65 2.877-14.92 2.877z" fill="#ffbd86"/><g><path d="m100.16 282.597v-11.05c-4.964-.103-9.709-1.106-14.08-2.856v13.907c0 8.24 6.68 14.92 14.92 14.92 2.547 0 4.943-.641 7.04-1.766-4.689-2.517-7.88-7.462-7.88-13.155z" fill="#f6a96c"/></g><g><g><path d="m60.724 231.291v-18.056c0-2.151.566-4.169 1.55-5.924h-8.302c-10.389 0-18.812 8.422-18.812 18.812 0 10.389 8.422 18.812 18.812 18.812h9.136c-1.541-4.264-2.384-8.857-2.384-13.644z" fill="#f6a96c"/><path d="m148.029 207.311h-6.753v23.979c0 4.787-.844 9.381-2.383 13.644h9.136c10.389 0 18.812-8.422 18.812-18.812 0-10.389-8.423-18.811-18.812-18.811z" fill="#ffbd86"/></g><g><path d="m117.452 185.313c4.481-4.246 11.37-4.896 16.427-1.356 5.077 3.554 8.397 9.446 8.397 16.114v31.22c0 22.796-18.48 41.276-41.276 41.276-22.796 0-41.276-18.48-41.276-41.276v-18.056c0-7.271 5.894-13.165 13.165-13.165h13.533c9.925 0 19.472-3.805 26.677-10.632z" fill="#fed2a4"/></g><g><path d="m76.447 230.534v-18.387c0-5.327 3.115-9.914 7.615-12.077h-11.174c-7.271 0-13.165 5.894-13.165 13.165v18.056c0 22.796 18.48 41.276 41.276 41.276 2.985 0 5.892-.324 8.697-.926-18.996-4.04-33.249-20.906-33.249-41.107z" fill="#ffbd86"/></g><g><g><path d="m101 263.346c-5.993 0-11.985-2.022-16.874-6.066-3.192-2.64-3.639-7.368-.999-10.559 2.64-3.192 7.368-3.64 10.559-.999 4.237 3.505 10.389 3.505 14.626 0 3.192-2.641 7.92-2.192 10.559.999 2.641 3.191 2.193 7.919-.999 10.559-4.887 4.043-10.879 6.066-16.872 6.066z" fill="#d88a55"/></g><g><path d="m100.993 240.745c-1.349 0-2.714-.364-3.945-1.127l-7.862-4.875c-1.904-1.181-3.181-3.151-3.48-5.372s.41-4.459 1.934-6.102l7.862-8.478c2.815-3.037 7.561-3.216 10.599-.399 3.037 2.816 3.216 7.562.399 10.599l-1.671 1.802.125.077c3.52 2.183 4.604 6.806 2.421 10.327-1.421 2.288-3.873 3.548-6.382 3.548z" fill="#d88a55"/></g></g></g><g><g><path d="m77.414 226.604c-4.142 0-7.5-3.358-7.5-7.5v-5.618c0-4.142 3.358-7.5 7.5-7.5s7.5 3.358 7.5 7.5v5.618c0 4.142-3.358 7.5-7.5 7.5z" fill="#d88a55"/></g><g><path d="m124.586 226.604c-4.142 0-7.5-3.358-7.5-7.5v-5.618c0-4.142 3.358-7.5 7.5-7.5s7.5 3.358 7.5 7.5v5.618c0 4.142-3.357 7.5-7.5 7.5z" fill="#d88a55"/></g></g></g><g fill="#fff"><path d="m324.505 245h15v74.231h-15z"/><path d="m259.5 245h15v74.231h-15z"/></g><g fill="#eaf6ff"><path d="m324.505 245h8.495v74.231h-8.495z"/><path d="m259.5 245h8.495v74.231h-8.495z"/></g><g><path d="m365.228 318.231h-131.451c-9.818 0-17.777 7.959-17.777 17.777v12.374h35.223c9.251 0 16.777 7.526 16.777 16.777v146.546c41.972-2.025 81.174-14.605 115.005-35.152v-140.545c0-9.818-7.959-17.777-17.777-17.777z" fill="#fed402"/></g><g><path d="m236 347.382v-4.382c0-2.761 2.239-5 5-5h9v-1.992c0-9.818 7.959-17.777 17.777-17.777h-34c-9.818 0-17.777 7.959-17.777 17.777v11.374z" fill="#fac600"/></g><path d="m137.372 348.382c3.034-15.306 16.56-26.882 32.744-26.882s29.709 11.576 32.744 26.882h15.191c-3.188-23.614-23.462-41.882-47.935-41.882s-44.747 18.268-47.935 41.882z" fill="#d9e7ec"/><path d="m358.005 338h-117.005c-2.761 0-5 2.239-5 5v5.382h15.223c9.251 0 16.777 7.526 16.777 16.777v50.159h90.005c2.761 0 5-2.239 5-5v-67.318c0-2.761-2.239-5-5-5z" fill="#fac600"/><path d="m251.223 348.382c4.099 0 7.855 1.482 10.772 3.933v-9.315c0-2.761 2.239-5 5-5h-25.995c-2.761 0-5 2.239-5 5v5.382z" fill="#e8b800"/><path d="m358.005 428h-90.005v52.318h90.005c2.761 0 5-2.239 5-5v-42.318c0-2.761-2.239-5-5-5z" fill="#fac600"/><g><path d="m348.005 246h-97.005c-2.761 0-5-2.239-5-5v-10c0-2.761 2.239-5 5-5h97.005c2.761 0 5 2.239 5 5v10c0 2.761-2.239 5-5 5z" fill="#d9e7ec"/></g><path d="m271.995 241v-10c0-2.761 2.239-5 5-5h-25.995c-2.761 0-5 2.239-5 5v10c0 2.761 2.239 5 5 5h25.995c-2.761 0-5-2.239-5-5z" fill="#b6c4cf"/><g><path d="m251.223 347.382h-162.215c-9.818 0-17.777 7.959-17.777 17.777v62.725c44.915 51.539 111.036 84.116 184.769 84.116 4.361 0 8.695-.119 13-.344v-146.497c0-9.818-7.959-17.777-17.777-17.777z" fill="#fea613"/></g><path d="m97 365.159c0-9.818 7.959-17.777 17.777-17.777h-25.769c-9.818 0-17.777 7.959-17.777 17.777v62.725c7.947 9.119 16.57 17.63 25.769 25.486z" fill="#fe9901"/><path d="m239 511.396v-101.688c0-6.839-5.544-12.384-12.384-12.384h-113.001c-6.839 0-12.384 5.544-12.384 12.384v47.192c38.085 31.079 85.685 50.924 137.769 54.496z" fill="#fed402"/><path d="m127 409.708c0-6.839 5.544-12.384 12.384-12.384h-25.769c-6.839 0-12.384 5.544-12.384 12.384v47.192c8.168 6.665 16.776 12.809 25.769 18.391z" fill="#fac600"/><path d="m136.231 424.284v14.935c0 3.471 2.814 6.284 6.284 6.284h55.2c3.471 0 6.284-2.814 6.284-6.284v-14.935c0-3.471-2.814-6.284-6.284-6.284h-55.2c-3.47 0-6.284 2.814-6.284 6.284z" fill="#fea613"/></g></svg>