<svg id="Layer_1" enable-background="new 0 0 512 512" viewBox="0 0 512 512" xmlns="http://www.w3.org/2000/svg"><g><path d="m56.795 417.008 188.702 63.787 188.347-51.302c38.356-43.245 61.659-100.143 61.659-162.494 0-135.311-109.691-245.002-245.002-245.002s-245.002 109.69-245.002 245.001c0 56.518 19.148 108.558 51.296 150.01z" fill="#fef156"/><path d="m377.36 415.384c-11.181-17.254-30.592-28.679-52.683-28.679-2.831 0-5.612.206-8.343.569l-32.895 47.957 32.895 67.809c18.985-5.285 37.038-12.803 53.866-22.245l24.519-35.637z" fill="#3ecd8d"/><path d="m432.738 275.758h-23.653v-23.653c0-7.934-6.432-14.366-14.366-14.366-7.935 0-14.366 6.432-14.366 14.366v23.653h-23.653c-7.934 0-14.366 6.432-14.366 14.366s6.432 14.366 14.366 14.366h23.653v23.653c0 7.934 6.432 14.366 14.366 14.366s14.366-6.432 14.366-14.366v-23.653h23.653c7.934 0 14.366-6.432 14.366-14.366 0-7.935-6.432-14.366-14.366-14.366z" fill="#ff6eae"/><path d="m185.849 450.569-7.117-343.294-121.937 18.559v291.174c23.345 30.102 53.551 54.609 88.272 71.188z" fill="#27a6ff"/><path d="m235.001 107.275-84.339 18.558c-8.132 5.749-17.522 16.37-17.522 34.79v249.964s-1.727 36.042 21.443 45.832l73.486 54.548-.002.008c7.388.675 14.87 1.024 22.434 1.024 22.808 0 44.883-3.128 65.833-8.959v-377.206z" fill="#02c0fc"/><path d="m38.098 111.551c0 7.855 6.427 14.283 14.283 14.283h268.367c7.856 0 14.283-6.428 14.283-14.283 0-7.855-6.427-14.283-14.283-14.283h-268.367c-7.856 0-14.283 6.427-14.283 14.283z" fill="#8ce1f9"/><path d="m204.318 484.318-17.754-34.863h-32.376c-5.042 0-9.129 4.087-9.129 9.129v29.619c13.223 6.314 27.106 11.463 41.508 15.348z" fill="#4a3279"/><path d="m125.016 232.693h-22.215c-7.211 0-13.111 5.9-13.111 13.111v22.216c0 7.211 5.9 13.111 13.111 13.111h22.215c7.211 0 13.111-5.9 13.111-13.111v-22.216c0-7.211-5.9-13.111-13.111-13.111z" fill="#8ce1f9"/><path d="m197.672 232.693h-22.216c-7.211 0-13.111 5.9-13.111 13.111v22.216c0 7.211 5.9 13.111 13.111 13.111h22.216c7.211 0 13.111-5.9 13.111-13.111v-22.216c0-7.211-5.9-13.111-13.111-13.111z" fill="#27a6ff"/><path d="m270.328 232.693h-22.216c-7.211 0-13.111 5.9-13.111 13.111v22.216c0 7.211 5.9 13.111 13.111 13.111h22.216c7.211 0 13.111-5.9 13.111-13.111v-22.216c0-7.211-5.9-13.111-13.111-13.111z" fill="#8ce1f9"/><path d="m125.016 301.293h-22.215c-7.211 0-13.111 5.9-13.111 13.111v22.215c0 7.211 5.9 13.111 13.111 13.111h22.215c7.211 0 13.111-5.9 13.111-13.111v-22.215c0-7.211-5.9-13.111-13.111-13.111z" fill="#fef156"/><path d="m197.672 301.293h-22.216c-7.211 0-13.111 5.9-13.111 13.111v22.215c0 7.211 5.9 13.111 13.111 13.111h22.216c7.211 0 13.111-5.9 13.111-13.111v-22.215c0-7.211-5.9-13.111-13.111-13.111z" fill="#8ce1f9"/><path d="m270.328 301.293h-22.216c-7.211 0-13.111 5.9-13.111 13.111v22.215c0 7.211 5.9 13.111 13.111 13.111h22.216c7.211 0 13.111-5.9 13.111-13.111v-22.215c0-7.211-5.9-13.111-13.111-13.111z" fill="#27a6ff"/><path d="m125.016 369.894h-22.215c-7.211 0-13.111 5.9-13.111 13.111v22.216c0 7.211 5.9 13.111 13.111 13.111h22.215c7.211 0 13.111-5.9 13.111-13.111v-22.216c0-7.212-5.9-13.111-13.111-13.111z" fill="#8ce1f9"/><path d="m197.672 369.894h-22.216c-7.211 0-13.111 5.9-13.111 13.111v22.216c0 7.211 5.9 13.111 13.111 13.111h22.216c7.211 0 13.111-5.9 13.111-13.111v-22.216c0-7.212-5.9-13.111-13.111-13.111z" fill="#8ce1f9"/><path d="m270.328 369.894h-22.216c-7.211 0-13.111 5.9-13.111 13.111v22.216c0 7.211 5.9 13.111 13.111 13.111h22.216c7.211 0 13.111-5.9 13.111-13.111v-22.216c0-7.212-5.9-13.111-13.111-13.111z" fill="#fef156"/><path d="m218.941 449.455h-32.377v54.099c13.415 3.617 27.284 6.122 41.505 7.413v-52.384c0-5.041-4.087-9.128-9.128-9.128z" fill="#6c618c"/><g><path d="m125.016 164.093h-22.215c-7.211 0-13.111 5.9-13.111 13.111v22.216c0 7.211 5.9 13.111 13.111 13.111h22.215c7.211 0 13.111-5.9 13.111-13.111v-22.216c0-7.212-5.9-13.111-13.111-13.111z" fill="#8ce1f9"/><path d="m197.672 164.093h-22.216c-7.211 0-13.111 5.9-13.111 13.111v22.216c0 7.211 5.9 13.111 13.111 13.111h22.216c7.211 0 13.111-5.9 13.111-13.111v-22.216c0-7.212-5.9-13.111-13.111-13.111z" fill="#8ce1f9"/><path d="m270.328 164.093h-22.216c-7.211 0-13.111 5.9-13.111 13.111v22.216c0 7.211 5.9 13.111 13.111 13.111h22.216c7.211 0 13.111-5.9 13.111-13.111v-22.216c0-7.212-5.9-13.111-13.111-13.111z" fill="#fef156"/></g><path d="m378.605 0h-49.245c-19.304 0-35.098 15.794-35.098 35.097v141.699c0 19.575 15.868 35.443 35.443 35.443h109.467l27.511-102.565z" fill="#bbf0f9"/><path d="m471.404 0h-92.798c-7.268 11.667-22.205 42.507 3.27 67.982 32.117 32.117 57 84.234 57 84.234s-24.024 29.726.296 60.023h32.232c19.304 0 35.098-15.794 35.098-35.097v-142.045c-.001-19.303-15.795-35.097-35.098-35.097z" fill="#e8f8fc"/><path d="m386.301 143.855 24.488-23.113-5.316-21.692-18.158-1.782-23.113 24.487-21.285-6.311c-4.441-1.316-9.161.916-10.961 5.184l-1.388 3.291c-1.228 2.913-.065 6.284 2.699 7.82l16.273 9.043c-.559 2.946-.253 6.052 1.002 8.916 1.53 3.495 4.321 6.286 7.816 7.816 2.864 1.254 5.971 1.56 8.916 1.001l9.043 16.273c1.536 2.764 4.906 3.927 7.82 2.699l3.291-1.387c4.268-1.799 6.501-6.52 5.184-10.961z" fill="#27a6ff"/><path d="m466.57 53.396c1.014-6.956-4.956-12.926-11.911-11.911-11.115 1.621-21.348 6.973-29.02 15.178l-14.779 15.658-49.561-17.589c-3.625-1.286-7.666-.373-10.385 2.346l-5.254 5.254c-2.123 2.123-1.782 5.656.707 7.334l40.947 27.601s-.447 23.474 23.474 23.474l27.6 40.947c1.678 2.49 5.211 2.831 7.334.708l5.254-5.254c2.72-2.72 3.633-6.761 2.346-10.385l-17.589-49.561 15.658-14.779c8.205-7.672 13.558-17.906 15.179-29.021z" fill="#02c0fc"/><path d="m370.2 480.794c24.001-13.467 45.508-30.854 63.644-51.302-9.775-10.456-23.682-17-39.125-17-6.078 0-11.913 1.027-17.359 2.893 0-.001-30.076 26.4-7.16 65.409z" fill="#95db76"/></g><g/><g/><g/><g/><g/><g/><g/><g/><g/><g/><g/><g/><g/><g/><g/></svg>