<svg id="Capa_1" enable-background="new 0 0 512 512" height="512" viewBox="0 0 512 512" width="512" xmlns="http://www.w3.org/2000/svg"><g><g><path d="m256 22c-135.31 0-245 109.69-245 245 0 49.883 14.933 96.263 40.542 134.964.419-4.576 4.274-8.173 8.958-8.173h312.077c4.963 0 9 4.038 9 9v23.983c0 4.962-4.037 9-9 9h-18.443v54.672l1 .652c85.919-38.065 145.866-124.075 145.866-224.098 0-135.31-109.69-245-245-245z" fill="#fed402"/></g><path d="m354.134 207.524h85.297v-30.99c0-2.475-2.007-4.482-4.482-4.482h-80.815z" fill="#fac600"/><path d="m354.134 318.472v35.528h103.384c2.475 0 4.482-2.007 4.482-4.482v-31.046z" fill="#fac600"/><g><g><path d="m291.311 97h-70.49c-10.946 21.326-33.152 35.961-58.726 35.961-20.349 0-38.57-9.264-50.683-23.791-8.392 8.01-13.629 19.296-13.629 31.813v3.199h237.512v-3.199c0-24.291-19.692-43.983-43.984-43.983z" fill="#9facba"/><path d="m111.412 109.171c-8.392 8.01-13.629 19.296-13.629 31.813v3.199h50.705v-3.199c0-3.173.344-6.265.982-9.248-15.18-2.954-28.516-11.121-38.058-22.565z" fill="#8d9ca8"/><g><path d="m78.428 435.774c44.635 46.947 107.679 76.226 177.572 76.226 35.286 0 68.823-7.473 99.134-20.902v-55.324z" fill="#8d9ca8"/><path d="m292.051 318.472c-1.92 0-3.481-1.562-3.481-3.481h-2c-.001 1.92-1.563 3.482-3.482 3.482h-77.988c-1.92 0-3.481-1.562-3.481-3.482v-103.984c0-1.92 1.562-3.482 3.481-3.482h77.987c1.92 0 3.482 1.562 3.482 3.482h2c0-1.92 1.562-3.482 3.481-3.482h63.083v-53.345c0-6.073-4.923-10.996-10.996-10.996h-255.197c-6.073 0-10.996 4.923-10.996 10.996v239.612h277.189v-75.319h-63.082z" fill="#8d9ca8"/><path d="m116.429 379.331c-3.036 0-5.498-2.462-5.498-5.498v-5.498c0-3.036 2.461-5.498 5.498-5.498h12.381v-25.026h-12.381c-3.036 0-5.498-2.461-5.498-5.498v-150.644c0-3.036 2.461-5.498 5.498-5.498h12.381v-21.992c0-6.073 4.923-10.996 10.996-10.996h-50.866c-6.073 0-10.996 4.923-10.996 10.996v239.612h50.866v-14.46z" fill="#7a8c98"/></g><path d="m128.571 435.774v16.728c0 3.036 2.461 5.498 5.498 5.498h164.939c3.037 0 5.498-2.462 5.498-5.498v-16.728z" fill="#596c76"/><path d="m171 452.502v-16.728h-42.429v16.728c0 3.036 2.461 5.498 5.498 5.498h42.429c-3.037 0-5.498-2.462-5.498-5.498z" fill="#465a61"/><path d="m292.051 318.472c-1.92 0-3.481-1.562-3.481-3.481h-2c-.001 1.92-1.563 3.482-3.482 3.482h-77.988c-1.92 0-3.481-1.562-3.481-3.482v-103.984c0-1.92 1.562-3.482 3.481-3.482h77.987c1.92 0 3.482 1.562 3.482 3.482h2c0-1.92 1.562-3.482 3.481-3.482h30.095v-25.856c0-3.036-2.461-5.498-5.498-5.498h-200.218c-3.036 0-5.498 2.462-5.498 5.498v150.644c0 3.036 2.461 5.498 5.498 5.498h200.219c3.037 0 5.498-2.461 5.498-5.498v-13.841z" fill="#fff"/><path d="m138 332.313v-150.644c0-3.036 2.461-5.498 5.498-5.498h-27.068c-3.036 0-5.498 2.462-5.498 5.498v150.644c0 3.036 2.461 5.498 5.498 5.498h27.068c-3.037 0-5.498-2.461-5.498-5.498z" fill="#eaf6ff"/><path d="m265.254 393.791-9.057-27.171c-1.357-4.071-5.167-6.817-9.458-6.817h-60.4c-4.291 0-8.101 2.746-9.458 6.817l-9.057 27.171z" fill="#596c76"/><path d="m211.515 359.803h-25.176c-4.291 0-8.101 2.746-9.458 6.817l-9.057 27.171h25.176l9.057-27.171c1.357-4.071 5.167-6.817 9.458-6.817z" fill="#465a61"/><path d="m372.577 436.775h-312.077c-5.523 0-10-4.477-10-10v-23.984c0-5.523 4.477-10 10-10h312.077c5.523 0 10 4.477 10 10v23.984c0 5.522-4.477 10-10 10z" fill="#b6c4cf"/><path d="m111 419.984c-5.523 0-10-4.477-10-10v-17.193h-40.5c-5.523 0-10 4.477-10 10v23.984c0 5.523 4.477 10 10 10h312.078c5.523 0 10-4.477 10-10v-6.791z" fill="#9facba"/><path d="m201.618 211.007c0-1.92 1.562-3.482 3.481-3.482h77.987c1.92 0 3.482 1.562 3.482 3.482h2c0-1.92 1.562-3.482 3.481-3.482h12.456v-10.9c0-3.036-2.461-5.498-5.498-5.498h-164.938c-3.036 0-5.498 2.462-5.498 5.498v34.526c0 3.037 2.461 5.498 5.498 5.498h67.549z" fill="#ffe5c2"/><path d="m474.518 206.525h-182.467c-2.476 0-4.482 2.007-4.482 4.482l-1 3.077v97.709l1 3.198c0 2.475 2.007 4.482 4.482 4.482h182.467c2.475 0 4.482-2.007 4.482-4.482v-103.984c0-2.476-2.007-4.482-4.482-4.482z" fill="#eaf6ff"/><path d="m154 231.15v-34.526c0-3.036 2.462-5.498 5.498-5.498h-25.429c-3.036 0-5.498 2.462-5.498 5.498v34.526c0 3.037 2.461 5.498 5.498 5.498h25.429c-3.036 0-5.498-2.461-5.498-5.498z" fill="#fed2a4"/><g><path d="m201.618 314.99v-9.067h-67.549c-3.036 0-5.498 2.462-5.498 5.498s2.461 5.498 5.498 5.498h68.135c-.369-.553-.586-1.216-.586-1.929z" fill="#ffe5c2"/></g><path d="m154 311.421c0-3.036 2.462-5.498 5.498-5.498h-25.429c-3.036 0-5.498 2.462-5.498 5.498s2.461 5.498 5.498 5.498h25.429c-3.036 0-5.498-2.462-5.498-5.498z" fill="#fed2a4"/><path d="m316.648 379.331h-34.426c-3.036 0-5.498-2.462-5.498-5.498v-5.498c0-3.036 2.462-5.498 5.498-5.498h34.426c3.036 0 5.498 2.462 5.498 5.498v5.498c0 3.037-2.462 5.498-5.498 5.498z" fill="#596c76"/><path d="m293.578 373.833v-5.498c0-3.036 2.461-5.498 5.498-5.498h-16.854c-3.036 0-5.498 2.461-5.498 5.498v5.498c0 3.036 2.461 5.498 5.498 5.498h16.854c-3.036 0-5.498-2.461-5.498-5.498z" fill="#465a61"/><path d="m150.855 379.331h-34.425c-3.036 0-5.498-2.462-5.498-5.498v-5.498c0-3.036 2.462-5.498 5.498-5.498h34.426c3.036 0 5.498 2.462 5.498 5.498v5.498c-.001 3.037-2.462 5.498-5.499 5.498z" fill="#596c76"/><path d="m127.578 373.833v-5.498c0-3.036 2.461-5.498 5.498-5.498h-16.647c-3.036 0-5.498 2.461-5.498 5.498v5.498c0 3.036 2.461 5.498 5.498 5.498h16.647c-3.036 0-5.498-2.461-5.498-5.498z" fill="#465a61"/></g><circle cx="148.364" cy="270.736" fill="#c4e2ff" r="19.793"/><path d="m145.415 270.736c0-7.915 4.657-14.725 11.371-17.892-2.558-1.207-5.406-1.901-8.422-1.901-10.931 0-19.793 8.862-19.793 19.793s8.861 19.793 19.793 19.793c3.016 0 5.863-.694 8.422-1.901-6.714-3.167-11.371-9.977-11.371-17.892z" fill="#c4e2ff"/><path d="m201.618 252.391c-2.291-.926-4.788-1.448-7.411-1.448-10.931 0-19.793 8.862-19.793 19.793s8.862 19.793 19.793 19.793c2.623 0 5.12-.522 7.411-1.448z" fill="#d8ecfe"/><path d="m201.618 288.051c-6.107-3.368-10.257-9.847-10.257-17.315s4.149-13.947 10.257-17.315v-1.017c-2.29-.932-4.786-1.46-7.411-1.46-10.931 0-19.793 8.862-19.793 19.793s8.862 19.793 19.793 19.793c2.625 0 5.121-.528 7.411-1.46z" fill="#c4e2ff"/><circle cx="277.5" cy="123.5" fill="#8bc727" r="7.5"/><circle cx="298.5" cy="123.5" fill="#fff" r="7.5"/></g><g><circle cx="162.095" cy="66.981" fill="#60b7ff" r="66.981"/><path d="m129.039 66.981c0-31.131 21.24-57.297 50.018-64.809-5.418-1.414-11.101-2.172-16.962-2.172-36.992 0-66.981 29.988-66.981 66.981s29.988 66.981 66.981 66.981c5.861 0 11.544-.758 16.962-2.172-28.778-7.512-50.018-33.678-50.018-64.809z" fill="#26a6fe"/><path d="m197.04 58.104h-13.641c-1.03 0-1.979-.56-2.477-1.462l-14.594-26.424c-.722-1.306-2.532-2.374-4.024-2.374-3.886 0-7.036 3.15-7.036 7.036v20.393c0 1.563-1.267 2.83-2.83 2.83h-13.107c-.037 0-.073.005-.11.005l-6.015-10.893c-.498-.902-1.447-1.462-2.478-1.462h-1.875c-1.563 0-2.83 1.267-2.83 2.83v15.749c0 .833.68 1.516 1.515 1.516v2.263c-.834 0-1.515.682-1.515 1.516v15.749c0 1.563 1.267 2.83 2.83 2.83h2.029c.834 0 1.846-.598 2.249-1.326l6.09-11.03c.037.001.073.005.11.005h13.107c1.563 0 2.83 1.267 2.83 2.83v20.395c0 3.886 3.15 7.036 7.036 7.036 1.491 0 3.302-1.068 4.023-2.375l14.594-26.424c.498-.902 1.447-1.462 2.477-1.462h13.642c5.188 0 9.394-3.973 9.394-8.875.001-4.902-4.206-8.876-9.394-8.876z" fill="#fff"/></g><g><path d="m313 314.99v-103.983c0-2.475 2.007-4.482 4.482-4.482h-25.431c-2.476 0-4.482 2.007-4.482 4.482v103.983c0 2.475 2.007 4.482 4.482 4.482h25.431c-2.475 0-4.482-2.007-4.482-4.482z" fill="#d8ecfe"/><g><path d="m283.087 319.472h-77.987c-2.475 0-4.482-2.007-4.482-4.482v-103.983c0-2.475 2.007-4.482 4.482-4.482h77.987c2.475 0 4.482 2.007 4.482 4.482v103.983c0 2.475-2.007 4.482-4.482 4.482z" fill="#26a6fe"/></g><path d="m226 314.99v-103.983c0-2.475 2.007-4.482 4.482-4.482h-25.382c-2.475 0-4.482 2.007-4.482 4.482v103.983c0 2.475 2.007 4.482 4.482 4.482h25.382c-2.475 0-4.482-2.007-4.482-4.482z" fill="#0593fc"/><g><g><path d="m459.37 306.096h-27.289c-1.519 0-2.751-1.232-2.751-2.751v-80.693c0-1.519 1.232-2.751 2.751-2.751h27.289c1.519 0 2.751 1.232 2.751 2.751v80.693c0 1.519-1.232 2.751-2.751 2.751z" fill="#fff"/></g><g><g><path d="m434.612 233.973v3.032c0 1.695 1.374 3.069 3.069 3.069h16.09c1.695 0 3.069-1.374 3.069-3.069v-3.032c0-1.695-1.374-3.069-3.069-3.069h-16.09c-1.695 0-3.069 1.374-3.069 3.069z" fill="#596c76"/></g><g><path d="m437.681 253.828h16.09c1.695 0 3.069-1.374 3.069-3.069v-3.032c0-1.695-1.374-3.069-3.069-3.069h-16.09c-1.695 0-3.069 1.374-3.069 3.069v3.032c0 1.695 1.374 3.069 3.069 3.069z" fill="#596c76"/></g><g><path d="m437.681 267.583h16.09c1.695 0 3.069-1.374 3.069-3.069v-3.032c0-1.695-1.374-3.069-3.069-3.069h-16.09c-1.695 0-3.069 1.374-3.069 3.069v3.032c0 1.695 1.374 3.069 3.069 3.069z" fill="#596c76"/></g><g><path d="m437.681 281.337h16.09c1.695 0 3.069-1.374 3.069-3.069v-3.032c0-1.695-1.374-3.069-3.069-3.069h-16.09c-1.695 0-3.069 1.374-3.069 3.069v3.032c0 1.696 1.374 3.069 3.069 3.069z" fill="#596c76"/></g><g><path d="m437.681 295.092h16.09c1.695 0 3.069-1.374 3.069-3.069v-3.032c0-1.695-1.374-3.069-3.069-3.069h-16.09c-1.695 0-3.069 1.374-3.069 3.069v3.032c0 1.695 1.374 3.069 3.069 3.069z" fill="#596c76"/></g></g></g><g><g><path d="m213.679 307.009v-19.796c0-1.485 1.204-2.689 2.689-2.689h55.451c1.485 0 2.689 1.204 2.689 2.689v19.796c0 1.485-1.204 2.689-2.689 2.689h-55.451c-1.485 0-2.689-1.204-2.689-2.689z" fill="#fff"/></g><g><g><path d="m265.733 288.579h-1.04c-1.657 0-3 1.343-3 3v11.064c0 1.657 1.343 3 3 3h1.04c1.657 0 3-1.343 3-3v-11.064c0-1.657-1.343-3-3-3z" fill="#596c76"/></g><g><path d="m251.133 291.579v11.064c0 1.657 1.343 3 3 3h1.04c1.657 0 3-1.343 3-3v-11.064c0-1.657-1.343-3-3-3h-1.04c-1.657 0-3 1.343-3 3z" fill="#596c76"/></g><g><path d="m240.574 291.579v11.064c0 1.657 1.343 3 3 3h1.04c1.657 0 3-1.343 3-3v-11.064c0-1.657-1.343-3-3-3h-1.04c-1.657 0-3 1.343-3 3z" fill="#596c76"/></g><g><path d="m230.014 291.579v11.064c0 1.657 1.343 3 3 3h1.04c1.657 0 3-1.343 3-3v-11.064c0-1.657-1.343-3-3-3h-1.04c-1.657 0-3 1.343-3 3z" fill="#596c76"/></g><g><path d="m219.454 291.579v11.064c0 1.657 1.343 3 3 3h1.04c1.657 0 3-1.343 3-3v-11.064c0-1.657-1.343-3-3-3h-1.04c-1.657 0-3 1.343-3 3z" fill="#596c76"/></g></g></g><g><g><circle cx="226.213" cy="229.672" fill="#fed402" r="12.55"/></g><path d="m221.901 229.672c0-5.486 3.526-10.138 8.431-11.844-1.292-.449-2.674-.706-4.118-.706-6.931 0-12.55 5.619-12.55 12.55s5.619 12.55 12.55 12.55c1.445 0 2.827-.256 4.118-.706-4.905-1.706-8.431-6.357-8.431-11.844z" fill="#fac600"/><g><g><path d="m272.523 231.602h-21.514c-2.762 0-5-2.239-5-5s2.238-5 5-5h21.514c2.762 0 5 2.239 5 5s-2.238 5-5 5z" fill="#fff"/></g></g></g><g><g><path d="m270.538 260.17h-52.889c-2.762 0-5-2.239-5-5s2.238-5 5-5h52.889c2.762 0 5 2.239 5 5s-2.239 5-5 5z" fill="#fff"/></g><g><path d="m270.538 277.858h-52.889c-2.762 0-5-2.239-5-5s2.238-5 5-5h52.889c2.762 0 5 2.239 5 5s-2.239 5-5 5z" fill="#fff"/></g></g><g><path d="m409.977 228.556h-54.682c-2.762 0-5-2.239-5-5s2.238-5 5-5h54.682c2.762 0 5 2.239 5 5s-2.238 5-5 5z" fill="#b3dafe"/></g><g><g><path d="m363.364 256.05h-54.681c-2.762 0-5-2.239-5-5s2.238-5 5-5h54.681c2.762 0 5 2.239 5 5s-2.238 5-5 5z" fill="#b3dafe"/></g><g><path d="m363.364 275.102h-54.681c-2.762 0-5-2.239-5-5s2.238-5 5-5h54.681c2.762 0 5 2.239 5 5s-2.238 5-5 5z" fill="#b3dafe"/></g></g><g><g><path d="m409.977 256.05h-30.479c-2.762 0-5-2.239-5-5s2.238-5 5-5h30.479c2.762 0 5 2.239 5 5s-2.238 5-5 5z" fill="#b3dafe"/></g><g><path d="m409.977 275.102h-30.479c-2.762 0-5-2.239-5-5s2.238-5 5-5h30.479c2.762 0 5 2.239 5 5s-2.238 5-5 5z" fill="#b3dafe"/></g></g><g><path d="m409.977 304.751h-101.294c-2.762 0-5-2.239-5-5s2.238-5 5-5h101.294c2.762 0 5 2.239 5 5s-2.238 5-5 5z" fill="#b3dafe"/></g><g><circle cx="314.958" cy="225.797" fill="#fed402" r="9.86"/></g><path d="m313.279 225.797c0-3.984 2.368-7.409 5.77-8.964-1.247-.57-2.63-.897-4.091-.897-5.446 0-9.861 4.415-9.861 9.86s4.415 9.86 9.861 9.86c1.461 0 2.844-.326 4.091-.897-3.402-1.553-5.77-4.977-5.77-8.962z" fill="#fac600"/></g></g></svg>