<svg id="Layer_1" enable-background="new 0 0 512 512" viewBox="0 0 512 512" xmlns="http://www.w3.org/2000/svg"><g><path d="m255.553 422.976c167.991 0 244.919-172.21 244.922-172.216-8.361-127.738-114.6-228.764-244.453-228.764s-236.092 101.025-244.453 228.764c.003.006 75.993 172.216 243.984 172.216z" fill="#fef156"/><path d="m27.926 247.511c-5.795 0-11.318 1.159-16.357 3.248-.351 5.369-.549 10.78-.549 16.238 0 19.149 2.2 37.783 6.359 55.666.001.004.002.007.003.011l.001.003c.173.744.359 1.483.539 2.225l42.502-6.688 10.232-28.407c-.24-23.398-19.274-42.296-42.73-42.296z" fill="#3ecd8d"/><path d="m70.666 289.808c-.004 0-.007 0-.011 0-.398.006-39.444.638-52.734 35.095 5.362 22.109 13.715 43.049 24.617 62.361.002.002 12.178 9.29 32.124 21.688 31.076-2.058 55.65-27.9 55.65-59.498 0-32.941-26.704-59.646-59.646-59.646z" fill="#95db76"/><path d="m495.114 320.843-23.935-35.343-29.801 4.308c-32.942 0-59.646 26.705-59.646 59.646 0 31.597 24.574 57.44 55.65 59.498 19.946-12.398 32.122-21.686 32.124-21.688 11.269-19.959 19.823-41.655 25.156-64.586.153-.599.303-1.212.452-1.835z" fill="#95db76"/><path d="m190.667 296.768h130.711s14.254 6.819 11.004 27.736l-76.359 38.667-81.058-41.333c-.001-.001-4.929-17.472 15.702-25.07z" fill="#1d8df2"/><path d="m484.119 247.511c-23.456 0-42.49 18.898-42.729 42.297-.004 0-.007 0-.011 0 0 0 6.968 44.858 53.737 31.035 4.159-17.347 7.087-43.712 5.361-70.083-5.041-2.09-10.564-3.249-16.358-3.249z" fill="#baee63"/><path d="m202.943 278.375c-.765 13.16-3.679 30.223-13.032 39.576-1.691.39-3.366.805-5.034 1.231 0 0-10.835 95.581 51.171 82.699s51.514-158.717-33.105-123.506z" fill="#fc9460"/><path d="m321.195 317.951c-9.353-9.353-12.268-26.416-13.032-39.576l-33.776-8.327-18.834 36.373c.001.008 9.61 58.488-33.923 87.509 0 0-33.083 51.765 34.392 51.765s71.122-126.274 71.122-126.274c-1.969-.512-3.948-1.008-5.949-1.47z" fill="#ffaa7b"/><path d="m283.919 418.717c-9.126 2.796-18.68 4.259-28.365 4.259-9.353 0-18.587-1.355-27.428-3.965l-24.578 50.082 24.578 41.316c9.157 1.038 18.462 1.59 27.896 1.59 9.435 0 18.739-.552 27.897-1.59l21.962-45.051z" fill="#e8f8fc"/><path d="m154.298 324.504c-40.849 12.432-74.601 30.779-92.589 41.647-8.354 5.047-14.983 12.403-19.17 21.113 18.449 32.678 44.196 60.676 75.01 81.829l69.77-31.211 30.77-44.456z" fill="#1d8df2"/><path d="m167.563 416.345s-50.015 3.037-50.015 38.037v14.711c32.164 22.08 69.849 36.699 110.578 41.316v-106.136l-10.039-10.847c-8.923-.876-32.923-.695-50.524 22.919z" fill="#27a6ff"/><path d="m450.336 366.151c-17.989-10.868-51.74-29.215-92.589-41.647l-73.828 79.769v106.137c38.866-4.406 74.958-17.924 106.129-38.335l12.75-28.442 24.13-1.131c16.673-16.239 31.054-34.822 42.579-55.236-4.188-8.711-10.817-16.068-19.171-21.115z" fill="#02c0fc"/><g><path d="m190.667 296.768s-13.626 12.566 0 41.575c13.625 29.009 37.459 65.93 37.459 65.93s-20.257-5.625-43.418 15.852c-5.467 5.069-14.317 3.12-17.145-3.779l-23.246-56.709c-6.977-17.021-1.357-36.66 13.664-47.278 9.655-6.826 21.207-15.591 32.686-15.591z" fill="#02c0fc"/></g><g><path d="m321.377 296.768s13.625 12.566 0 41.575-37.459 65.93-37.459 65.93 20.257-5.625 43.418 15.852c5.467 5.069 14.317 3.12 17.145-3.779l23.245-56.709c6.977-17.021 1.357-36.66-13.664-47.278-9.653-6.826-21.205-15.591-32.685-15.591z" fill="#6ad9fb"/></g><path d="m255.553 10.373-.002-.006c-6.462-.059-12.915-1.415-18.998-4.087-8.636-3.792-18.055-6.28-27.908-6.28-22.579 0-40.862 35.599-52.831 68.014l101.928 11.367z" fill="#27a6ff"/><path d="m356.23 68.199c-11.968-32.465-30.278-68.199-52.899-68.199-9.853 0-19.272 2.488-27.908 6.281-6.358 2.792-13.119 4.148-19.872 4.087l.002.006s-22.091 24.32-8.548 49.164l-.006.005h.018l72.334 27.506z" fill="#02c0fc"/><path d="m246.998 59.542c-34.672.443-66.304 3.552-91.184 8.472-4.716 12.774-8.453 25.053-11.084 34.464l110.823 2.653z" fill="#2a428b"/><path d="m356.23 68.199c-27.042-5.433-62.218-8.717-100.677-8.717-2.873 0-5.721.024-8.555.06-.138.099-16.379 11.766-3.443 32.092l59.377 18.747 64.376-7.68c-2.621-9.395-6.356-21.694-11.078-34.502z" fill="#3f57a0"/><path d="m243.556 91.635c-79.73 1.431-142.519 17.004-142.519 36.004 0 18.79 61.407 34.225 139.875 35.949l32.635-26.872z" fill="#02c0fc"/><path d="m255.553 91.527c-4.037 0-8.038.037-11.997.108-.007.005-20.322 16.412 3.5 30.412 0 0-5.181 17.697-6.143 41.541 4.82.106 9.702.162 14.641.162 85.337 0 154.516-16.167 154.516-36.111s-69.18-36.112-154.517-36.112z" fill="#6ad9fb"/><path d="m347.386 124.608c-5.618-.347-11.469-.664-17.527-.947 0 0-15.812 6.887-8.645 27.054s24.16 16.683 27.747 7.008c.468-13.559 1.63-28.926 1.63-28.926.003-.013.005-.027.008-.04.421-2.066-1.107-4.019-3.213-4.149z" fill="#1d2e79"/><path d="m181.247 123.662c-6.057.283-11.904.6-17.52.947-1.889.117-3.349 1.715-3.282 3.606.459 13.035 2.503 24.753 3.426 29.487 4.157 10.82 16.578 13.512 25.677-5.653 9.098-19.165-8.301-28.387-8.301-28.387z" fill="#1d2e79"/><path d="m354.81 159.814c-3.788-3.472-11.888-2.111-15.892-.07l-21.537 28.305 17.359 24.68c9.577 2.214 15.268-6.526 16.091-12.587.366-2.697.965-5.355 1.796-7.949 2.705-8.448 12.462-22.958 2.183-32.379z" fill="#ffaa7b"/><path d="m172.193 159.746c-4.002-2.042-12.107-3.404-15.896.068-10.28 9.421-.522 23.931 2.184 32.379.83 2.594 1.429 5.252 1.795 7.949.823 6.061 6.514 14.801 16.09 12.587l19.681-19.847z" fill="#fc9460"/><path d="m308.163 278.375-5.23-78.175-55.878-78.153c-23.538.111-45.799.68-65.809 1.614.03 2.465.142 4.751.289 6.745.341 4.637-.8 9.274-3.306 13.206-1.444 2.266-2.6 4.664-3.524 7.038-2.997 7.7-3.871 16.052-2.748 24.229l4.171 30.379c0 43.674 23.314 73.359 43.145 88.759 10.351 8.038 23.125 12.404 36.281 12.404s25.93-4.366 36.281-12.404c5.365-4.167 10.984-9.389 16.328-15.642z" fill="#ffaa7b"/><path d="m329.86 123.662c-22.404-1.046-47.624-1.636-74.306-1.636-2.851 0-5.682.008-8.498.021-.008.028-35.265 120.326 61.108 156.328 14.409-16.856 26.816-41.261 26.816-73.117l4.17-30.372c1.112-8.097.269-16.367-2.659-24.007-.939-2.449-2.122-4.929-3.613-7.268-2.525-3.961-3.636-8.647-3.297-13.32.141-1.965.249-4.211.279-6.629z" fill="#ffc7ab"/><g><g><g><path d="m206.942 166.479c-7.489 7.137 3.329 18.062 11.068 11.222 2.911-2.573 7.342-2.572 10.252 0 7.733 6.834 18.57-4.074 11.068-11.222-9.012-8.589-23.365-8.599-32.388 0z" fill="#ea7e42"/></g></g><g><g><path d="m272.71 166.479c-7.489 7.137 3.329 18.062 11.068 11.222 2.911-2.573 7.342-2.572 10.252 0 7.733 6.834 18.57-4.074 11.069-11.222-9.013-8.589-23.366-8.599-32.389 0z" fill="#ea7e42"/></g></g><path d="m240.226 220.88c-6.06 0-10.625 3.903-9.63 8.178 3.055 13.122 13.281 22.767 25.427 22.767 12.145 0 22.372-9.645 25.427-22.767.995-4.274-3.571-8.178-9.63-8.178z" fill="#fe3d97"/></g><path d="m426.927 442.5c-4.968-9.236-12.484-16.198-19.439-21.132-7.316-5.191-17.441.073-17.441 9.044v41.662c13.239-8.669 25.589-18.577 36.88-29.574z" fill="#27a6ff"/></g><g/><g/><g/><g/><g/><g/><g/><g/><g/><g/><g/><g/><g/><g/><g/></svg>